<svg xmlns="http://www.w3.org/2000/svg" viewBox="0 0 900 520" width="900" height="520">
  <defs>
    <linearGradient id="bg" x1="0" y1="0" x2="1" y2="1">
      <stop offset="0" stop-color="#0d2545"/>
      <stop offset="1" stop-color="#12656b"/>
    </linearGradient>
    <radialGradient id="glow" cx="72%" cy="18%" r="62%">
      <stop offset="0" stop-color="#2ed39f" stop-opacity="0.55"/>
      <stop offset="1" stop-color="#2ed39f" stop-opacity="0"/>
    </radialGradient>
    <filter id="shadow" x="-20%" y="-20%" width="140%" height="140%">
      <feDropShadow dx="0" dy="18" stdDeviation="18" flood-color="#031426" flood-opacity=".32"/>
    </filter>
    <filter id="soft" x="-20%" y="-20%" width="140%" height="140%">
      <feDropShadow dx="0" dy="8" stdDeviation="8" flood-color="#001b35" flood-opacity=".18"/>
    </filter>
    <style>
      .glass{fill:rgba(255,255,255,.82);stroke:rgba(255,255,255,.75);stroke-width:2;filter:url(#shadow)}
      .line{fill:none;stroke:#ffffff;stroke-width:8;stroke-linecap:round;stroke-linejoin:round;opacity:.92}
      .thin{fill:none;stroke:#bfe3ff;stroke-width:3;stroke-linecap:round;opacity:.8}
      .dark{fill:#071a34}.white{fill:#fff}.muted{fill:#d8ecff}.accent{fill:#2ed39f}
      .label{font-family:Inter,Segoe UI,Arial,sans-serif;font-weight:900;fill:#ffffff;font-size:34px;letter-spacing:-.6px}
      .sub{font-family:Inter,Segoe UI,Arial,sans-serif;font-weight:700;fill:#dcefff;font-size:18px}
      .small{font-family:Inter,Segoe UI,Arial,sans-serif;font-weight:800;fill:#0a2b4d;font-size:18px}
    </style>
  </defs>
  <rect width="900" height="520" rx="0" fill="url(#bg)"/>
  <rect width="900" height="520" fill="url(#glow)"/>
  <path d="M-40 430 C160 330,260 470,450 350 S750 240,960 325" fill="none" stroke="#ffffff" stroke-opacity=".18" stroke-width="38"/>
  <path d="M-20 410 C190 300,305 426,486 320 S740 230,935 290" fill="none" stroke="#2ed39f" stroke-opacity=".55" stroke-width="8"/>
  <text x="42" y="72" class="label">Amazon Fuse UX Research</text>
  <text x="44" y="104" class="sub">activation • engagement • suspension • WTR</text>
  
  <rect x="110" y="150" width="185" height="300" rx="34" class="glass"/>
  <rect x="124" y="180" width="157" height="238" rx="22" fill="#f5fbff"/>
  <circle cx="202" cy="390" r="12" fill="#0a2b4d" opacity=".25"/>
  <rect x="145" y="210" width="115" height="24" rx="12" fill="#0073bb"/><rect x="145" y="252" width="95" height="14" rx="7" fill="#00a6a6"/><rect x="145" y="282" width="125" height="14" rx="7" fill="#d9e7f5"/><rect x="145" y="326" width="110" height="42" rx="12" fill="#ff9900" opacity=".85"/>
  <rect x="367" y="180" width="165" height="210" rx="28" class="glass"/><rect x="600" y="180" width="165" height="210" rx="28" class="glass"/>
  <path d="M295 280 H365 M532 280 H600" stroke="#fff" stroke-width="8" stroke-linecap="round"/><path d="M335 260 L365 280 L335 300 M570 260 L600 280 L570 300" class="line"/>
  <circle cx="450" cy="255" r="34" fill="#0073bb"/><path d="M432 270 C438 245,461 245,468 270" stroke="#fff" stroke-width="8" fill="none" stroke-linecap="round"/><circle cx="450" cy="236" r="12" fill="#fff"/>
  <rect x="402" y="315" width="96" height="20" rx="10" fill="#e7fff4"/><circle cx="682" cy="255" r="44" fill="#ff9900" opacity=".92"/><path d="M660 258 L676 274 L708 236" stroke="#fff" stroke-width="10" fill="none" stroke-linecap="round" stroke-linejoin="round"/><rect x="642" y="315" width="82" height="20" rx="10" fill="#eaf6ff"/>

</svg>